<?xml version="1.0" standalone="no"?>
<!DOCTYPE svg PUBLIC "-//W3C//DTD SVG 20010904//EN"
 "http://www.w3.org/TR/2001/REC-SVG-20010904/DTD/svg10.dtd">
<svg version="1.0" xmlns="http://www.w3.org/2000/svg"
 width="150.000000pt" height="150.000000pt" viewBox="0 0 150.000000 150.000000"
 preserveAspectRatio="xMidYMid meet">

<g transform="translate(0.000000,150.000000) scale(0.100000,-0.100000)"
fill="#000000" stroke="none">
<path d="M502 1345 c-222 -45 -405 -85 -408 -87 -2 -3 5 -13 16 -23 11 -10 20
-31 20 -47 0 -22 23 -53 102 -141 57 -61 94 -105 83 -97 -18 14 -19 14 -7 -2
7 -9 22 -15 32 -13 10 2 24 -3 31 -11 6 -8 16 -14 22 -14 6 0 -2 15 -19 32
-23 26 -24 29 -4 12 l25 -21 340 78 c187 43 344 77 350 75 5 -1 -41 -15 -103
-31 -62 -15 -111 -29 -109 -31 9 -9 317 69 360 91 27 14 58 25 69 25 20 0 21
-4 15 -67 -4 -38 -7 -91 -7 -120 0 -47 -2 -52 -27 -62 -26 -9 -25 -10 12 -6
39 5 38 4 -10 -10 -27 -9 -63 -13 -80 -10 -23 4 -27 3 -15 -6 11 -8 7 -9 -20
-5 -20 3 -30 2 -22 -2 17 -12 -90 -35 -120 -27 -19 5 -20 4 -8 -5 12 -9 8 -10
-20 -6 -20 3 -30 2 -22 -2 17 -12 -90 -35 -120 -27 -15 4 -18 3 -10 -2 8 -6
-70 -29 -219 -63 -218 -51 -231 -53 -241 -36 -6 10 -65 78 -132 152 -91 101
-127 134 -145 134 -23 0 -23 -1 -7 -19 13 -14 14 -21 6 -26 -7 -4 -23 -31 -36
-59 -29 -62 -32 -149 -7 -222 19 -57 22 -60 79 -69 l43 -6 -23 -42 c-19 -36
-22 -56 -21 -132 1 -49 7 -107 15 -127 12 -34 19 -38 64 -47 234 -47 898 -171
914 -171 14 0 70 55 167 161 128 140 145 163 130 172 -14 7 -22 5 -34 -11 -79
-99 -247 -282 -260 -282 -14 0 -14 -2 -1 -11 12 -8 10 -10 -10 -6 -14 3 -103
20 -198 38 -116 22 -168 36 -155 41 10 5 -1 6 -27 3 -34 -4 -40 -3 -25 5 15 8
9 9 -25 5 -34 -4 -40 -3 -25 5 15 8 9 9 -25 5 -27 -3 -37 -2 -27 3 13 5 -40
19 -160 41 -253 48 -233 36 -233 134 0 45 -3 99 -6 119 -8 46 1 48 77 14 50
-23 335 -83 345 -73 3 3 -25 10 -61 17 -36 7 -64 15 -61 17 3 3 145 -21 316
-52 l310 -58 28 24 27 24 -25 -29 c-14 -15 -34 -32 -45 -36 -19 -9 -19 -9 1
-9 12 -1 27 5 33 13 7 8 21 13 31 11 10 -2 27 6 37 18 l18 22 -25 -20 -25 -20
24 28 c24 27 38 36 26 17 -18 -29 16 -2 73 57 100 107 59 51 -66 -90 -63 -70
-112 -130 -110 -132 2 -3 60 56 127 131 85 93 121 140 117 151 -4 8 -1 22 5
29 6 8 8 14 3 14 -5 0 -38 -31 -74 -68 -70 -74 -56 -53 28 42 36 40 51 64 47
76 -3 11 4 30 20 48 31 37 31 42 3 42 -36 0 -68 11 -62 21 3 5 -6 9 -20 9 -15
0 -33 -11 -46 -27 -12 -16 -70 -80 -130 -144 l-108 -116 -234 52 c-128 29
-333 74 -454 100 l-221 48 -7 120 c-4 65 -5 121 -3 124 13 12 60 -27 153 -125
l102 -106 39 12 c49 15 93 15 127 2 16 -6 35 -6 48 0 23 9 23 9 -2 10 -14 0
-31 4 -39 9 -21 14 44 19 100 8 36 -7 53 -7 62 2 8 8 2 11 -23 11 -23 0 -30 3
-22 9 8 4 35 4 60 -1 31 -6 61 -5 87 2 33 9 57 7 134 -10 90 -20 95 -20 115
-3 19 16 19 15 -1 -8 -30 -33 -30 -49 0 -21 13 12 26 20 29 17 3 -3 43 34 88
82 46 48 77 79 70 68 -8 -11 -39 -46 -69 -79 -31 -32 -47 -54 -36 -48 11 6 51
43 90 83 38 39 81 75 94 79 57 15 79 194 35 287 -19 40 -34 51 -231 163 -116
66 -219 120 -230 119 -10 0 -199 -38 -421 -84z m-255 -71 c-3 -3 -12 -4 -19
-1 -8 3 -5 6 6 6 11 1 17 -2 13 -5z m-44 -11 c-21 -8 -15 -64 9 -92 13 -14 -3
-1 -35 29 l-58 55 28 6 c34 8 73 9 56 2z m936 -127 c-10 -9 -741 -176 -750
-171 -5 4 -5 11 1 18 6 7 21 28 33 47 25 38 26 38 217 54 41 4 93 9 115 12 22
2 74 7 115 9 41 2 109 11 150 19 75 14 127 20 119 12z m-844 -56 c21 -22 37
-40 34 -40 -3 0 -23 18 -44 40 -21 22 -37 40 -34 40 3 0 23 -18 44 -40z m43
-550 c61 -13 110 -25 108 -27 -7 -7 -246 41 -246 50 0 5 6 7 13 5 6 -3 63 -15
125 -28z m159 -36 c-3 -3 -12 -4 -19 -1 -8 3 -5 6 6 6 11 1 17 -2 13 -5z m50
-10 c-3 -3 -12 -4 -19 -1 -8 3 -5 6 6 6 11 1 17 -2 13 -5z m-90 -20 c-3 -3
-12 -4 -19 -1 -8 3 -5 6 6 6 11 1 17 -2 13 -5z m46 -11 c-7 -2 -19 -2 -25 0
-7 3 -2 5 12 5 14 0 19 -2 13 -5z m636 -69 c13 -3 20 -9 15 -13 -10 -10 -74
-2 -74 8 0 9 27 11 59 5z m-552 -200 c-3 -3 -12 -4 -19 -1 -8 3 -5 6 6 6 11 1
17 -2 13 -5z"/>
<path d="M172 1235 c0 -16 2 -22 5 -12 2 9 2 23 0 30 -3 6 -5 -1 -5 -18z"/>
<path d="M136 1119 c4 -7 7 -22 8 -34 1 -14 49 -72 130 -156 71 -74 127 -129
125 -122 -2 7 -60 71 -128 143 -127 135 -164 189 -51 75 93 -94 95 -80 4 20
-43 47 -82 85 -87 85 -4 0 -5 -5 -1 -11z"/>
<path d="M1265 1074 l-30 -13 30 6 c32 6 41 11 34 17 -2 2 -17 -2 -34 -10z"/>
<path d="M160 1015 c13 -14 26 -25 28 -25 3 0 -5 11 -18 25 -13 14 -26 25 -28
25 -3 0 5 -11 18 -25z"/>
<path d="M838 1013 c7 -3 16 -2 19 1 4 3 -2 6 -13 5 -11 0 -14 -3 -6 -6z"/>
<path d="M139 983 c5 -10 38 -45 72 -78 l63 -60 -68 78 c-69 77 -85 92 -67 60z"/>
<path d="M1255 974 c-16 -8 -22 -12 -12 -9 10 3 27 5 38 5 10 0 19 5 19 10 0
13 -9 12 -45 -6z"/>
<path d="M1241 747 c-41 -45 -101 -110 -134 -144 -32 -35 -55 -63 -51 -63 4 0
61 56 127 125 66 69 122 123 125 120 3 -3 -5 -17 -19 -33 l-24 -27 26 23 c16
14 26 34 27 52 0 17 0 30 -1 29 -1 0 -35 -37 -76 -82z"/>
<path d="M340 818 c0 -3 14 -17 30 -33 17 -16 30 -24 30 -18 0 7 -13 21 -30
33 -16 12 -30 20 -30 18z"/>
<path d="M165 800 c11 -5 27 -9 35 -9 9 0 8 4 -5 9 -11 5 -27 9 -35 9 -9 0 -8
-4 5 -9z"/>
<path d="M1255 663 l-58 -68 63 62 c35 34 62 65 58 68 -3 3 -31 -25 -63 -62z"/>
<path d="M170 700 c8 -5 24 -9 35 -9 l20 0 -20 9 c-11 5 -27 9 -35 9 -13 1
-13 0 0 -9z"/>
<path d="M1089 533 l-34 -38 38 34 c34 33 42 41 34 41 -2 0 -19 -17 -38 -37z"/>
<path d="M1095 497 c-21 -18 -36 -39 -34 -46 3 -8 19 4 43 33 20 25 36 46 33
46 -2 0 -21 -15 -42 -33z"/>
<path d="M260 440 c34 -11 60 -11 35 0 -11 5 -29 8 -40 8 -16 0 -15 -2 5 -8z"/>
<path d="M1369 423 l-24 -28 28 24 c15 14 27 26 27 28 0 8 -8 1 -31 -24z"/>
<path d="M668 403 c7 -3 16 -2 19 1 4 3 -2 6 -13 5 -11 0 -14 -3 -6 -6z"/>
<path d="M1384 387 c-51 -57 -116 -137 -111 -137 8 0 140 151 135 155 -3 3
-14 -5 -24 -18z"/>
<path d="M240 350 c0 -7 71 -22 77 -16 2 2 -14 8 -37 14 -22 5 -40 6 -40 2z"/>
<path d="M1174 198 l-29 -33 33 29 c17 17 32 31 32 33 0 8 -8 1 -36 -29z"/>
<path d="M818 143 c6 -2 18 -2 25 0 6 3 1 5 -13 5 -14 0 -19 -2 -12 -5z"/>
<path d="M868 133 c6 -2 18 -2 25 0 6 3 1 5 -13 5 -14 0 -19 -2 -12 -5z"/>
<path d="M928 123 c7 -3 16 -2 19 1 4 3 -2 6 -13 5 -11 0 -14 -3 -6 -6z"/>
<path d="M978 113 c7 -3 16 -2 19 1 4 3 -2 6 -13 5 -11 0 -14 -3 -6 -6z"/>
<path d="M1028 103 c7 -3 16 -2 19 1 4 3 -2 6 -13 5 -11 0 -14 -3 -6 -6z"/>
</g>
</svg>
